<svg width="23" height="23" viewBox="0 0 23 23" fill="none" xmlns="http://www.w3.org/2000/svg">
<path fill-rule="evenodd" clip-rule="evenodd" d="M11.5 0.5C12.8807 0.5 14 1.61929 14 3V9H20C21.3807 9 22.5 10.1193 22.5 11.5C22.5 12.8807 21.3807 14 20 14H14V20C14 21.3807 12.8807 22.5 11.5 22.5C10.1193 22.5 9 21.3807 9 20V14H3C1.61929 14 0.5 12.8807 0.5 11.5C0.5 10.1193 1.61929 9 3 9H9V3C9 1.61929 10.1193 0.5 11.5 0.5Z" fill="white" stroke="#914D41" stroke-width="0.5" stroke-linecap="round" stroke-linejoin="round"/>
</svg>
