<svg width="20" height="20" viewBox="0 0 20 20" fill="none" xmlns="http://www.w3.org/2000/svg">
<path fill-rule="evenodd" clip-rule="evenodd" d="M1.30328 1.30331C2.27959 0.326998 3.8625 0.326998 4.83881 1.30331L10.1421 6.60661L15.4454 1.30331C16.4217 0.326998 18.0046 0.326998 18.9809 1.30331C19.9573 2.27962 19.9573 3.86253 18.9809 4.83884L13.6776 10.1421L18.9809 15.4454C19.9573 16.4218 19.9573 18.0047 18.9809 18.981C18.0046 19.9573 16.4217 19.9573 15.4454 18.981L10.1421 13.6777L4.83881 18.981C3.8625 19.9573 2.27959 19.9573 1.30328 18.981C0.326967 18.0047 0.326967 16.4218 1.30328 15.4454L6.60658 10.1421L1.30328 4.83884C0.326967 3.86253 0.326967 2.27962 1.30328 1.30331Z" fill="white" stroke="#914D41" stroke-width="0.5" stroke-linecap="round" stroke-linejoin="round"/>
</svg>
