<svg width="50" height="50" viewBox="0 0 50 50" fill="none" xmlns="http://www.w3.org/2000/svg">
<path d="M25 45C36.046 45 45 36.046 45 25C45 13.954 36.046 5 25 5C13.954 5 5 13.954 5 25C5 36.046 13.954 45 25 45Z" stroke="#FFF" stroke-width="3.25" stroke-linecap="round" stroke-linejoin="round"/>
<path d="M25.72 26.1C25.5606 26.08 25.3994 26.08 25.24 26.1C23.5439 26.0429 21.9364 25.3288 20.7571 24.1084C19.5778 22.8881 18.919 21.2571 18.92 19.56C18.92 15.94 21.84 13 25.48 13C27.1989 12.997 28.8501 13.6696 30.0776 14.8728C31.3052 16.076 32.0108 17.7134 32.0423 19.432C32.0738 21.1506 31.4286 22.8127 30.246 24.0601C29.0633 25.3074 27.4378 26.04 25.72 26.1V26.1ZM38.96 39.3C35.2845 42.6782 30.4721 44.5489 25.48 44.54C20.28 44.54 15.56 42.56 12 39.3C12.2 37.42 13.4 35.58 15.54 34.14C21.02 30.5 29.98 30.5 35.42 34.14C37.56 35.58 38.76 37.42 38.96 39.3V39.3Z" stroke="#FFF" stroke-width="3.25" stroke-linecap="round" stroke-linejoin="round"/>
</svg>
