<svg width="50" height="50" viewBox="0 0 50 50" fill="none" xmlns="http://www.w3.org/2000/svg">
<path d="M9.05117 44.7179C8.39105 44.7179 7.74926 44.5529 7.19916 44.2228C5.9706 43.5077 5.2738 42.0774 5.2738 40.2988V19.4682C5.2738 15.5625 8.44606 12.3902 12.3518 12.3902H26.6178C30.5235 12.3902 33.6957 15.5625 33.6957 19.4682V40.2988C33.6957 42.0774 32.9989 43.4893 31.7704 44.2228C30.5418 44.938 28.9649 44.8646 27.4062 44.0028L20.1999 39.987C19.8515 39.7853 19.118 39.7853 18.7696 39.987L11.5633 44.0028C10.7198 44.4795 9.85799 44.7179 9.05117 44.7179ZM12.3701 15.1591C9.98634 15.1591 8.04265 17.1028 8.04265 19.4866V40.3171C8.04265 41.0689 8.26269 41.6557 8.61109 41.8574C8.95949 42.0591 9.58294 41.9674 10.2431 41.6007L17.4494 37.5849C18.6229 36.9431 20.3833 36.9431 21.5568 37.5849L28.7632 41.6007C29.4233 41.9674 30.0284 42.0591 30.3951 41.8574C30.7435 41.6557 30.9636 41.0689 30.9636 40.3171V19.4866C30.9636 17.1028 29.0199 15.1591 26.6361 15.1591H12.3701Z" fill="#91C190" stroke="#91C190" stroke-width="0.75"/>
<path d="M40.9388 37.6051C40.1319 37.6051 39.2885 37.3667 38.4266 36.9083L31.6604 33.1309C31.4472 33.014 31.2697 32.8414 31.147 32.6314C31.0243 32.4215 30.9609 32.1822 30.9636 31.939V19.5067C30.9636 17.123 29.0199 15.1793 26.6361 15.1793H17.6694C16.9176 15.1793 16.2942 14.5558 16.2942 13.804V12.3921C16.2942 8.48636 19.4664 5.3141 23.3722 5.3141H37.6381C41.5439 5.3141 44.7161 8.48636 44.7161 12.3921V33.2226C44.7161 34.9829 44.0193 36.4132 42.7908 37.1283C42.2407 37.4401 41.6172 37.6051 40.9388 37.6051V37.6051ZM33.7141 31.1139L39.7652 34.5062C40.4253 34.8729 41.0304 34.9646 41.3972 34.7446C41.7639 34.5245 41.9656 33.9561 41.9656 33.2043V12.3737C41.9656 9.98997 40.0219 8.04628 37.6381 8.04628H23.3722C20.9884 8.04628 19.0447 9.98997 19.0447 12.3737V12.4104H26.6361C30.5418 12.4104 33.7141 15.5827 33.7141 19.4884V31.1139V31.1139Z" fill="#91C190" stroke="#91C190" stroke-width="0.75"/>
</svg>
