<svg width="50" height="50" viewBox="0 0 50 50" fill="none" xmlns="http://www.w3.org/2000/svg">
<path d="M43.6735 43.6735L40.0061 40.0061M24.4199 41.8398C26.7075 41.8398 28.9727 41.3892 31.0862 40.5138C33.1997 39.6384 35.12 38.3552 36.7376 36.7376C38.3552 35.12 39.6384 33.1997 40.5138 31.0862C41.3892 28.9727 41.8398 26.7075 41.8398 24.4199C41.8398 22.1323 41.3892 19.8671 40.5138 17.7536C39.6384 15.6401 38.3552 13.7198 36.7376 12.1022C35.12 10.4846 33.1997 9.20144 31.0862 8.32601C28.9727 7.45058 26.7075 7 24.4199 7C19.7999 7 15.369 8.83531 12.1022 12.1022C8.8353 15.369 7 19.7999 7 24.4199C7 29.0399 8.8353 33.4708 12.1022 36.7376C15.369 40.0045 19.7999 41.8398 24.4199 41.8398V41.8398Z" stroke="#91C190" stroke-width="3.5" stroke-linecap="round" stroke-linejoin="round"/>
</svg>
