<svg width="50" height="50" viewBox="0 0 50 50" fill="none" xmlns="http://www.w3.org/2000/svg">
<path d="M25 30.8778C26.5913 30.8778 28.1174 30.2457 29.2426 29.1204C30.3679 27.9952 31 26.4691 31 24.8778C31 23.2865 30.3679 21.7604 29.2426 20.6352C28.1174 19.5099 26.5913 18.8778 25 18.8778C23.4087 18.8778 21.8826 19.5099 20.7574 20.6352C19.6321 21.7604 19 23.2865 19 24.8778C19 26.4691 19.6321 27.9952 20.7574 29.1204C21.8826 30.2457 23.4087 30.8778 25 30.8778V30.8778Z" stroke="#FFF" stroke-width="3" stroke-miterlimit="10" stroke-linecap="round" stroke-linejoin="round"/>
<path d="M5 26.6378V23.1178C5 21.0378 6.7 19.3178 8.8 19.3178C12.42 19.3178 13.9 16.7578 12.08 13.6178C11.04 11.8178 11.66 9.4778 13.48 8.4378L16.94 6.4578C18.52 5.5178 20.56 6.0778 21.5 7.6578L21.72 8.0378C23.52 11.1778 26.48 11.1778 28.3 8.0378L28.52 7.6578C29.46 6.0778 31.5 5.5178 33.08 6.4578L36.54 8.4378C38.36 9.4778 38.98 11.8178 37.94 13.6178C36.12 16.7578 37.6 19.3178 41.22 19.3178C43.3 19.3178 45.02 21.0178 45.02 23.1178V26.6378C45.02 28.7178 43.32 30.4378 41.22 30.4378C37.6 30.4378 36.12 32.9978 37.94 36.1378C38.98 37.9578 38.36 40.2778 36.54 41.3178L33.08 43.2978C31.5 44.2378 29.46 43.6778 28.52 42.0978L28.3 41.7178C26.5 38.5778 23.54 38.5778 21.72 41.7178L21.5 42.0978C20.56 43.6778 18.52 44.2378 16.94 43.2978L13.48 41.3178C12.6082 40.8158 11.9712 39.9885 11.7087 39.0173C11.4462 38.0462 11.5798 37.0106 12.08 36.1378C13.9 32.9978 12.42 30.4378 8.8 30.4378C6.7 30.4378 5 28.7178 5 26.6378V26.6378Z" stroke="#FFF" stroke-width="3.25" stroke-miterlimit="10" stroke-linecap="round" stroke-linejoin="round"/>
</svg>
